<svg width="100" height="33" viewBox="0 0 100 33" fill="none" xmlns="http://www.w3.org/2000/svg">
<path d="M12.3154 0H13.2047C16.2919 0.0671143 19.3289 1.30873 21.5101 3.50672C20.7047 4.32887 19.8826 5.11746 19.094 5.93961C17.8691 4.83223 16.3926 3.97652 14.7819 3.67451C12.3993 3.17115 9.83222 3.62417 7.83557 4.98323C5.65436 6.40941 4.17785 8.82553 3.85906 11.4094C3.50671 13.9598 4.22819 16.6443 5.88926 18.6242C7.48322 20.5537 9.91611 21.7618 12.4329 21.8457C14.7819 21.9799 17.2315 21.2584 18.943 19.6141C20.2852 18.4564 20.906 16.6947 21.1074 14.9833C18.3221 14.9833 15.5369 15 12.7517 14.9833V11.5269H24.4799C25.0839 15.2349 24.2114 19.4128 21.3926 22.0638C19.5134 23.943 16.9128 25.0504 14.2617 25.2685C11.6946 25.5202 9.04362 25.0336 6.76175 23.792C4.02685 22.3323 1.84564 19.8658 0.771812 16.9631C-0.234899 14.2953 -0.251678 11.2752 0.687919 8.59063C1.54362 6.14096 3.18792 3.97652 5.30201 2.46645C7.33222 0.973157 9.79866 0.151007 12.3154 0Z" fill="#3780FF"/>
<path d="M79.5973 0.871094H83.1879V24.8308C81.9966 24.8308 80.7886 24.8476 79.5973 24.814C79.6141 16.8442 79.5973 8.85767 79.5973 0.871094V0.871094Z" fill="#38B137"/>
<path d="M32.4665 9.17618C34.6812 8.75672 37.0806 9.22652 38.9094 10.552C40.5705 11.7265 41.7282 13.5722 42.0806 15.5856C42.5336 17.9178 41.9631 20.4681 40.453 22.3138C38.8255 24.3775 36.1577 25.4849 33.5571 25.3171C31.1745 25.1829 28.8591 23.9916 27.4497 22.0453C25.8557 19.8977 25.4698 16.9446 26.3423 14.4279C27.2148 11.7265 29.6812 9.66276 32.4665 9.17618V9.17618ZM32.9698 12.3641C32.0638 12.599 31.2248 13.1191 30.6208 13.8574C28.9933 15.8037 29.094 18.9748 30.8893 20.7869C31.9128 21.8272 33.4564 22.3138 34.8826 22.0285C36.2081 21.7936 37.3658 20.9044 38.0034 19.7299C39.1108 17.7332 38.792 14.9816 37.0973 13.4212C36.0067 12.4144 34.4128 11.995 32.9698 12.3641Z" fill="#FA3913"/>
<path d="M50.2517 9.17742C52.7852 8.69084 55.5537 9.39554 57.4497 11.1741C60.5369 13.9425 60.8725 19.1271 58.2383 22.315C56.6443 24.3284 54.0604 25.4358 51.5101 25.3183C49.0772 25.2512 46.6779 24.0432 45.2349 22.0465C43.6074 19.8485 43.2551 16.8284 44.1779 14.2613C45.1007 11.6439 47.5168 9.64721 50.2517 9.17742V9.17742ZM50.755 12.3653C49.849 12.6002 49.0101 13.1204 48.4061 13.8418C46.7953 15.7546 46.8624 18.8754 48.5906 20.7042C49.6141 21.7948 51.2081 22.3318 52.6846 22.0297C53.9933 21.7781 55.1678 20.9056 55.8054 19.7311C56.896 17.7177 56.5772 14.966 54.8658 13.4056C53.7752 12.3989 52.1812 11.9962 50.755 12.3653Z" fill="#FCBD06"/>
<path d="M65.3355 10.1472C67.265 8.93913 69.8322 8.60356 71.9127 9.64383C72.5671 9.92906 73.104 10.4156 73.6241 10.9022C73.6409 10.4492 73.6241 9.9794 73.6409 9.5096C74.7651 9.52638 75.8892 9.5096 77.0302 9.52638V24.325C77.0134 26.5566 76.4429 28.9223 74.8322 30.5498C73.0704 32.3451 70.3691 32.8988 67.9362 32.5297C65.3355 32.1438 63.0704 30.2478 62.0637 27.8485C63.0704 27.3619 64.1275 26.976 65.1677 26.523C65.755 27.8988 66.9463 29.0733 68.4395 29.3418C69.9328 29.6102 71.661 29.2411 72.6342 27.9995C73.6744 26.7243 73.6744 24.9794 73.6241 23.419C72.8523 24.174 71.963 24.8452 70.8892 25.0968C68.557 25.7512 65.9899 24.9458 64.1946 23.3686C62.3825 21.7915 61.3087 19.3586 61.4093 16.9425C61.4597 14.2076 63.0033 11.5734 65.3355 10.1472V10.1472ZM68.8087 12.2948C67.7852 12.4626 66.8288 13.0331 66.1744 13.8217C64.5973 15.7009 64.5973 18.7042 66.1912 20.5499C67.0973 21.6405 68.557 22.2445 69.9664 22.0935C71.2919 21.9593 72.5167 21.1203 73.1711 19.9626C74.2785 17.9995 74.0939 15.3317 72.6006 13.6203C71.6778 12.5633 70.2013 12.0432 68.8087 12.2948V12.2948Z" fill="#3780FF"/>
<path d="M87.5 11.0056C89.5135 9.12636 92.6175 8.48877 95.2014 9.47871C97.6511 10.4015 99.2115 12.7337 100 15.1331C96.3591 16.6431 92.7349 18.1364 89.094 19.6465C89.5973 20.6029 90.3692 21.4754 91.4094 21.8277C92.8692 22.3478 94.6141 22.1633 95.839 21.1901C96.3256 20.821 96.7115 20.3344 97.0806 19.8646C98.0034 20.4854 98.9262 21.0894 99.849 21.7103C98.5403 23.6733 96.3423 25.0492 93.9765 25.2673C91.3591 25.5861 88.5739 24.5794 86.8792 22.5324C84.094 19.3109 84.3624 13.9082 87.5 11.0056V11.0056ZM89.2953 14.1096C88.7249 14.9317 88.49 15.9384 88.5067 16.9284C90.9396 15.9217 93.3725 14.915 95.8054 13.8915C95.4027 12.9519 94.4296 12.3814 93.4396 12.2304C91.8457 11.9452 90.1846 12.8009 89.2953 14.1096V14.1096Z" fill="#FA3913"/>
</svg>
