<svg width="100" height="100" viewBox="0 0 100 100" fill="none" xmlns="http://www.w3.org/2000/svg">
<g clip-path="url(#clip0_2687_79888)">
<path d="M100 48.9844V47.2257H97.8161V44.4917L97.7425 44.5143L95.6913 45.142L95.6508 45.1542V47.2258H92.4132V46.0718C92.4132 45.5344 92.5333 45.1232 92.7701 44.8489C93.0053 44.578 93.3417 44.4402 93.7707 44.4402C94.0791 44.4402 94.3984 44.5129 94.7198 44.6561L94.8003 44.6921V42.84L94.7624 42.8261C94.4626 42.7183 94.0549 42.6641 93.5494 42.6641C92.9124 42.6641 92.3337 42.8027 91.8289 43.0774C91.3239 43.3525 90.9266 43.7453 90.6483 44.2446C90.3709 44.7434 90.2302 45.3195 90.2302 45.957V47.2257H88.7095V48.9844H90.2302V56.3933H92.4132V48.9844H95.6508V53.6926C95.6508 55.6317 96.5655 56.6144 98.3693 56.6144C98.6657 56.6144 98.9777 56.5796 99.2962 56.5116C99.6205 56.4418 99.8413 56.372 99.9713 56.2976L100 56.2805V54.5056L99.9113 54.5643C99.7928 54.6433 99.6452 54.7078 99.4723 54.7558C99.2985 54.8046 99.1534 54.8291 99.041 54.8291C98.6185 54.8291 98.3058 54.7152 98.1119 54.4905C97.9157 54.2638 97.8162 53.8673 97.8162 53.3126V48.9844H100ZM83.8344 54.8294C83.042 54.8294 82.4173 54.5667 81.9771 54.0491C81.5341 53.529 81.3097 52.7874 81.3097 51.8452C81.3097 50.8731 81.5341 50.1123 81.9773 49.5829C82.4178 49.0571 83.0365 48.7902 83.8166 48.7902C84.5736 48.7902 85.1761 49.0451 85.6078 49.5482C86.0415 50.0539 86.2617 50.8087 86.2617 51.7921C86.2617 52.7876 86.0547 53.5523 85.6464 54.0638C85.241 54.5715 84.6314 54.8294 83.8344 54.8294V54.8294ZM83.9314 47.0049C82.4197 47.0049 81.2191 47.4479 80.363 48.3215C79.5074 49.1952 79.0737 50.4043 79.0737 51.9155C79.0737 53.3509 79.4971 54.5054 80.3323 55.3465C81.1675 56.188 82.3041 56.6142 83.7104 56.6142C85.1757 56.6142 86.3525 56.165 87.2082 55.2793C88.0639 54.3946 88.4973 53.1969 88.4973 51.721C88.4973 50.2632 88.0906 49.1 87.288 48.2645C86.485 47.4286 85.3555 47.0049 83.9314 47.0049V47.0049ZM75.5539 47.0049C74.5256 47.0049 73.675 47.2679 73.0253 47.7865C72.3715 48.3082 72.0399 48.9924 72.0399 49.8204C72.0399 50.2508 72.1115 50.6331 72.2524 50.9573C72.3941 51.2827 72.6134 51.5691 72.9047 51.8095C73.1939 52.0479 73.6402 52.2977 74.2317 52.5518C74.7289 52.7564 75.0997 52.9295 75.3352 53.0659C75.5655 53.1996 75.7288 53.3339 75.8211 53.4648C75.9108 53.5929 75.9563 53.7682 75.9563 53.9845C75.9563 54.6004 75.495 54.9001 74.546 54.9001C74.1939 54.9001 73.7924 54.8266 73.3525 54.6817C72.9158 54.539 72.5036 54.33 72.1304 54.062L72.0397 53.997V56.0988L72.073 56.1142C72.3819 56.2568 72.7713 56.3771 73.2304 56.4717C73.6885 56.5664 74.1047 56.6146 74.4663 56.6146C75.5822 56.6146 76.4808 56.3503 77.1364 55.8286C77.7963 55.3033 78.1307 54.6029 78.1307 53.7463C78.1307 53.1284 77.9507 52.5985 77.5958 52.1711C77.2434 51.7472 76.6318 51.358 75.7787 51.014C75.099 50.7412 74.6636 50.5148 74.4839 50.3409C74.3108 50.173 74.2229 49.9355 74.2229 49.6348C74.2229 49.3682 74.3314 49.1546 74.5542 48.9816C74.7787 48.8078 75.0913 48.7194 75.4832 48.7194C75.847 48.7194 76.2191 48.7768 76.5892 48.8894C76.959 49.002 77.2839 49.1528 77.555 49.3373L77.6442 49.3982V47.4045L77.61 47.3898C77.3598 47.2825 77.0299 47.1907 76.6292 47.1162C76.2304 47.0422 75.8686 47.0049 75.5539 47.0049V47.0049ZM66.3489 54.8294C65.5567 54.8294 64.9318 54.5667 64.4917 54.0491C64.0486 53.529 63.8246 52.7876 63.8246 51.8452C63.8246 50.8731 64.0489 50.1123 64.4921 49.5829C64.9323 49.0571 65.5509 48.7902 66.3314 48.7902C67.088 48.7902 67.6906 49.0451 68.1223 49.5482C68.5562 50.0539 68.7763 50.8087 68.7763 51.7921C68.7763 52.7876 68.5692 53.5523 68.1609 54.0638C67.7555 54.5715 67.1462 54.8294 66.3489 54.8294V54.8294ZM66.4462 47.0049C64.9341 47.0049 63.7333 47.4479 62.8777 48.3215C62.0222 49.1952 61.5881 50.4043 61.5881 51.9155C61.5881 53.3515 62.0118 54.5054 62.8471 55.3465C63.6823 56.188 64.8188 56.6142 66.2251 56.6142C67.6902 56.6142 68.8673 56.165 69.723 55.2793C70.5784 54.3946 71.0121 53.1969 71.0121 51.721C71.0121 50.2632 70.6052 49.1 69.8024 48.2645C68.9992 47.4286 67.87 47.0049 66.4462 47.0049V47.0049ZM58.2744 48.8134V47.2257H56.1179V56.3931H58.2744V51.7037C58.2744 50.9063 58.4552 50.2512 58.8119 49.7564C59.1641 49.2675 59.6335 49.0197 60.2066 49.0197C60.4008 49.0197 60.6189 49.0517 60.855 49.1151C61.0887 49.1781 61.258 49.2465 61.3578 49.3184L61.4485 49.3841V47.2101L61.4135 47.1951C61.2127 47.1098 60.9286 47.0667 60.5691 47.0667C60.0272 47.0667 59.5423 47.2408 59.1269 47.5837C58.7623 47.885 58.4988 48.2982 58.2973 48.8134H58.2744ZM52.2562 47.0049C51.2669 47.0049 50.3844 47.217 49.6339 47.6352C48.8817 48.0544 48.3001 48.6528 47.9043 49.4137C47.5103 50.1728 47.3103 51.0595 47.3103 52.0483C47.3103 52.9145 47.5042 53.7094 47.8876 54.4099C48.2711 55.1117 48.814 55.6606 49.5012 56.0414C50.1875 56.4217 50.9806 56.6145 51.8588 56.6145C52.8836 56.6145 53.7586 56.4096 54.4601 56.0055L54.4884 55.9893V54.0136L54.3978 54.0798C54.08 54.3113 53.7249 54.496 53.3428 54.6291C52.9617 54.7622 52.6142 54.8294 52.3095 54.8294C51.4633 54.8294 50.784 54.5646 50.291 54.0426C49.7969 53.52 49.5463 52.786 49.5463 51.8625C49.5463 50.9332 49.8076 50.1804 50.3225 49.6249C50.8359 49.0711 51.5164 48.7902 52.3451 48.7902C53.0538 48.7902 53.7445 49.0302 54.398 49.5042L54.4884 49.5699V47.4882L54.4592 47.4717C54.2133 47.3341 53.8779 47.2204 53.4616 47.1342C53.047 47.0482 52.6415 47.0049 52.2562 47.0049V47.0049ZM45.8251 47.2258H43.6687V56.3931H45.8251V47.2258V47.2258ZM44.7689 43.3205C44.414 43.3205 44.1045 43.4413 43.8501 43.6808C43.5948 43.9209 43.4652 44.2232 43.4652 44.5799C43.4652 44.9311 43.5932 45.2279 43.8462 45.4616C44.0975 45.6946 44.408 45.8127 44.769 45.8127C45.13 45.8127 45.4416 45.6946 45.696 45.462C45.9519 45.2279 46.0817 44.9312 46.0817 44.5799C46.0817 44.2356 45.9554 43.9364 45.7065 43.6904C45.4578 43.4449 45.1422 43.3205 44.7689 43.3205ZM39.3885 46.5495V56.3931H41.5892V43.6011H38.5433L34.6718 53.1027L30.9147 43.6011H27.7448V56.393H29.8129V46.5485H29.8839L33.8513 56.3931H35.412L39.3175 46.5495H39.3885V46.5495Z" fill="#706D6E"/>
<path d="M10.1445 49.4687H0V39.3242H10.1445V49.4687Z" fill="#F1511B"/>
<path d="M21.3451 49.4687H11.2008V39.3242H21.3451V49.4687Z" fill="#80CC28"/>
<path d="M10.1442 60.6756H0V50.5312H10.1442V60.6756Z" fill="#00ADEF"/>
<path d="M21.3451 60.6756H11.2008V50.5312H21.3451V60.6756Z" fill="#FBBC09"/>
</g>
<defs>
<clipPath id="clip0_2687_79888">
<rect width="100" height="100" fill="white"/>
</clipPath>
</defs>
</svg>
