<svg width="100" height="100" viewBox="0 0 100 100" fill="none" xmlns="http://www.w3.org/2000/svg">
<path d="M15.9188 40.1523H0.0488281V44.0123L1.49883 49.7523L6.04883 50.0123L9.90883 46.1523L17.5488 44.5123L15.9188 40.1523Z" fill="#00C425"/>
<path d="M0.0488281 44.0117V59.8817H3.90883L10.3688 59.3417L9.91883 53.8717L0.0488281 44.0117V44.0117Z" fill="#3AF23A"/>
<path d="M3.90625 59.8817H19.7762V56.0217L18.0862 50.8817L13.7662 50.0117L3.90625 59.8817Z" fill="#006446"/>
<path d="M95.6783 47.982L92.1883 51.1521L95.6783 54.3421V56.1822H95.5683L90.3883 51.4821V55.9522H88.8883V42.4319H90.3883V50.8821L95.5383 46.192H95.6783V47.982V47.982ZM27.9883 55.9522H35.6483V54.4421H29.5483V42.8719H27.9883V55.9522ZM40.9483 46.202C38.5983 46.202 36.4583 48.112 36.4583 51.1921C36.4583 54.1821 38.4183 56.1622 41.2383 56.1622C42.4983 56.1622 43.6583 55.8422 44.7083 55.0822V53.4721C43.6083 54.3921 42.3883 54.7821 41.2883 54.7821C39.5983 54.7821 38.0983 53.7321 37.9583 51.7721H45.0983C45.1183 51.5821 45.1583 51.1621 45.1583 51.0021C45.1583 47.852 43.2583 46.202 40.9483 46.202V46.202ZM40.9583 47.572C42.2883 47.572 43.6383 48.432 43.6883 50.4621H37.9483C38.0383 48.892 39.2483 47.572 40.9583 47.572ZM66.1483 46.202C64.8783 46.202 63.9583 46.872 63.4083 47.862C62.9483 46.802 62.0983 46.202 60.7383 46.202C59.5483 46.202 58.6683 46.892 58.1883 47.812H58.1483L57.9683 46.392H56.7783V55.9422H58.2983V49.912C58.2983 48.742 59.0283 47.652 60.3483 47.652C61.6383 47.652 62.2083 48.412 62.2083 49.792V55.9522H63.7283V49.812C63.7283 48.702 64.4683 47.652 65.7683 47.652C67.0783 47.652 67.6383 48.412 67.6383 49.792V55.9522H69.1583V49.582C69.1683 47.582 68.2383 46.202 66.1483 46.202V46.202ZM75.3183 46.202C73.0383 46.202 70.9083 48.132 70.9083 51.1921C70.9083 54.2121 73.0283 56.1622 75.3183 56.1622C76.7483 56.1622 78.0983 55.4922 78.8183 54.1621H78.8383L79.0183 55.9522H80.2583V46.402H79.0183L78.8383 48.192H78.8183C78.0983 46.882 76.7483 46.202 75.3183 46.202ZM75.5983 47.622C77.3983 47.622 78.7683 49.072 78.7683 51.1821C78.7683 53.2821 77.4083 54.7421 75.5983 54.7421C73.8283 54.7421 72.4283 53.3121 72.4283 51.2021C72.4283 49.052 73.8283 47.622 75.5983 47.622V47.622ZM86.7383 46.292C85.9083 46.292 84.6483 46.682 83.9983 47.922H83.9783L83.8183 46.402H82.5983V55.9522H84.1183V50.4521C84.1183 48.242 85.9083 47.552 87.3783 47.852V46.342C87.1783 46.312 86.9883 46.292 86.7383 46.292V46.292ZM54.8283 46.182H54.7083L50.7183 50.162L46.7383 46.182H46.6183V48.112L49.6883 51.1821L46.6183 54.2321V56.1822H46.7383L50.6983 52.1821L54.7083 56.1822H54.8283V54.2221L51.7283 51.1521L54.8283 48.032V46.182V46.182ZM95.6783 42.6419V42.4319H97.3383V42.6419H96.6383V44.3019H96.3883V42.6319C96.3783 42.6419 95.6783 42.6419 95.6783 42.6419V42.6419ZM98.1783 42.4319L98.8983 44.0119L99.6183 42.4319H99.9583V44.3019H99.7183V42.7319L98.9983 44.3019H98.7883L98.0783 42.7319V44.3019H97.8383V42.4219H98.1783V42.4319Z" fill="#32323C"/>
<path d="M19.7819 56.0223V40.1523H15.9219L9.92188 46.1523L19.7819 56.0223Z" fill="#008A44"/>
</svg>
